# xmcd
#
# Track frame offsets: 
#        150
#        18510
#        34730
#        52714
#        68284
#        77233
#        96110
#        108895
#        125152
#        143822
#
# Disc length: 2256 seconds
#
# Revision: 0
# Processed by: cddbd v1.5.2PL0 Copyright (c) Steve Scherf et al.
# Submitted via: ExactAudioCopy v1.0b3
#
DISCID=7808ce0a
DTITLE=Lee Fields - Faithful Man
DYEAR=2012
DGENRE=soul
TTITLE0=Faithful Man
TTITLE1=I Still Got It
TTITLE2=You're The Kind of Girl
TTITLE3=Still Hanging On
TTITLE4=Intermission
TTITLE5=Wish You Were Here
TTITLE6=Who Do You Love
TTITLE7=Moonlight Mile
TTITLE8=It's All Over (But the Crying)
TTITLE9=Walk On thru that Door
EXTD=
EXTT0=
EXTT1=
EXTT2=
EXTT3=
EXTT4=
EXTT5=
EXTT6=
EXTT7=
EXTT8=
EXTT9=
PLAYORDER=
